# xmcd
#
# Track frame offsets:
#	150
#	11943
#	29044
#	51236
#	73562
#	91965
#	105549
#	119293
#	139339
#	155741
#
# Disc length: 2325 seconds
#
# Revision: 1
# Processed by: cddbd v1.5.2PL0 Copyright (c) Steve Scherf et al.
# Submitted via: audiograbber 1.83.01
#
DISCID=8f09130a
DTITLE=Leon Russell - Snapshot
DYEAR=2013
DGENRE=Country
TTITLE0=So Hard To Say Goodbye
TTITLE1=Come For You
TTITLE2=I Love The Way You Love Me
TTITLE3=Honey and Eli
TTITLE4=Blue Eyes and A Black Heart
TTITLE5=Sweet Magic Love
TTITLE6=Too Hot To Handle
TTITLE7=Lost Inside The Blues
TTITLE8=I See The Light
TTITLE9=Friendly Fire
EXTD=
EXTT0=
EXTT1=
EXTT2=
EXTT3=
EXTT4=
EXTT5=
EXTT6=
EXTT7=
EXTT8=
EXTT9=
PLAYORDER=
